<?xml version="1.0" encoding="utf-8"?>
<!-- Generator: Adobe Illustrator 16.0.0, SVG Export Plug-In . SVG Version: 6.00 Build 0)  -->
<!DOCTYPE svg PUBLIC "-//W3C//DTD SVG 1.1//EN" "http://www.w3.org/Graphics/SVG/1.1/DTD/svg11.dtd">
<svg version="1.1" id="Layer_1" xmlns="http://www.w3.org/2000/svg" xmlns:xlink="http://www.w3.org/1999/xlink" x="0px" y="0px"
	 width="120px" height="95px" viewBox="0 0 120 95" enable-background="new 0 0 120 95" xml:space="preserve">
<g>
	<g>
		<path fill="none" stroke="#5E6B7B" stroke-width="2" stroke-miterlimit="10" d="M108.166,51.807c0,1.1-0.9,2-2,2H38.19
			c-1.1,0-2-0.9-2-2V48.33c0-1.1,0.9-2,2-2h67.976c1.1,0,2,0.9,2,2V51.807z"/>
	</g>
	<g>
		<path fill="none" stroke="#5E6B7B" stroke-width="2" stroke-miterlimit="10" d="M33.467,52.345
			c-0.688,0.857-1.954,0.996-2.812,0.309L14.354,39.577c-0.858-0.688-0.997-1.953-0.309-2.811l3.256-4.059
			c0.688-0.857,1.954-0.996,2.812-0.309l16.3,13.076c0.858,0.688,0.997,1.953,0.309,2.811L33.467,52.345z"/>
	</g>
	
		<rect x="28.198" y="60.668" fill="none" stroke="#5E6B7B" stroke-width="2" stroke-miterlimit="10" width="79.992" height="3.387"/>
	<polygon fill="none" stroke="#5E6B7B" stroke-width="2" stroke-miterlimit="10" points="104.221,85.922 108.205,85.922 
		108.205,64.096 104.221,64.078 	"/>
	
		<rect x="28.223" y="54.664" fill="#FFFFFF" stroke="#5E6B7B" stroke-width="2" stroke-miterlimit="10" width="79.943" height="5.744"/>
	<polygon fill="#FFFFFF" stroke="#5E6B7B" stroke-width="2" stroke-miterlimit="10" points="85.826,69.756 103.561,46.33 
		54.883,46.33 	"/>
	<polyline fill="none" stroke="#5E6B7B" stroke-width="2" stroke-miterlimit="10" points="47.514,46.357 47.514,8.039 59.129,8.039 
		59.129,10.479 	"/>
	<g>
		<path fill="none" stroke="#5E6B7B" stroke-width="2" stroke-miterlimit="10" d="M66.344,24.717c0,1.1-0.899,2-2,2h-9.755
			c-1.1,0-2-0.9-2-2V13.139c0-1.1,0.9-2,2-2h9.755c1.101,0,2,0.9,2,2V24.717z"/>
	</g>
	<g>
		<rect x="56.132" y="17.689" fill="#5E6B7B" width="6.643" height="2.424"/>
		<rect x="58.244" y="15.578" fill="#5E6B7B" width="2.421" height="6.643"/>
	</g>
	
		<rect x="28.223" y="64.059" fill="none" stroke="#5E6B7B" stroke-width="2" stroke-miterlimit="10" width="3.985" height="21.387"/>
	<line fill="none" stroke="#5E6B7B" stroke-width="2" stroke-miterlimit="10" x1="41.553" y1="85.961" x2="53.676" y2="85.961"/>
	<line fill="none" stroke="#5E6B7B" stroke-width="2" stroke-miterlimit="10" x1="47.412" y1="64.744" x2="47.412" y2="85.557"/>
</g>
</svg>
