<?xml version="1.0" encoding="utf-8"?>
<!-- Generator: Adobe Illustrator 16.0.0, SVG Export Plug-In . SVG Version: 6.00 Build 0)  -->
<!DOCTYPE svg PUBLIC "-//W3C//DTD SVG 1.1//EN" "http://www.w3.org/Graphics/SVG/1.1/DTD/svg11.dtd">
<svg version="1.1" id="Layer_1" xmlns="http://www.w3.org/2000/svg" xmlns:xlink="http://www.w3.org/1999/xlink" x="0px" y="0px"
	 width="120px" height="95px" viewBox="0 0 120 95" enable-background="new 0 0 120 95" xml:space="preserve">
<g>
	<ellipse fill="none" stroke="#5E6B7B" stroke-width="2" stroke-miterlimit="10" cx="60.439" cy="28.168" rx="15.549" ry="17"/>
	<g>
		<path fill="none" stroke="#5E6B7B" stroke-width="2" stroke-miterlimit="10" d="M72.396,39.678c0,0,0,2.362,0,5.249
			s-2.783,5.706-6.185,6.265c-3.402,0.559-8.783,0.559-11.958,0c-3.175-0.559-5.773-3.378-5.773-6.265s0-5.249,0-5.249"/>
	</g>
	<g>
		<path fill="none" stroke="#5E6B7B" stroke-width="2" stroke-miterlimit="10" d="M48.512,45.709c0,0-5.295,2.16-11.768,4.801
			C30.272,53.15,24.72,62.056,24.406,70.3L23.465,95"/>
	</g>
	<g>
		<path fill="none" stroke="#5E6B7B" stroke-width="2" stroke-miterlimit="10" d="M72.076,45.709c0,0,5.295,2.16,11.768,4.801
			S95.869,62.056,96.183,70.3l0.94,24.7"/>
	</g>
	<line fill="none" stroke="#5E6B7B" stroke-width="2" stroke-miterlimit="10" x1="81.686" y1="49.461" x2="81.686" y2="58.723"/>
	<path fill="none" stroke="#5E6B7B" stroke-width="2" stroke-miterlimit="10" d="M45.936,22.076h29.007
		c-2.243-6.375-7.882-10.908-14.503-10.908C53.818,11.168,48.178,15.701,45.936,22.076z"/>
	<circle fill="#FFFFFF" stroke="#5E6B7B" stroke-width="2" stroke-miterlimit="10" cx="60.439" cy="13.148" r="5.426"/>
	<circle fill="#FFFFFF" stroke="#5E6B7B" stroke-width="2" stroke-miterlimit="10" cx="81.687" cy="61.021" r="3.919"/>
	<circle fill="#FFFFFF" stroke="#5E6B7B" stroke-width="2" stroke-miterlimit="10" cx="81.687" cy="61.021" r="0.604"/>
	<g>
		<line fill="none" stroke="#5E6B7B" stroke-width="2" stroke-miterlimit="10" x1="41.881" y1="48.688" x2="41.881" y2="66.537"/>
		<g>
			<g>
				<path fill="none" stroke="#5E6B7B" stroke-width="2" stroke-miterlimit="10" d="M38.663,68.061L26.584,82.455
					c0,0-0.489,4.65,6.119,6.119"/>
				<circle fill="none" stroke="#5E6B7B" stroke-miterlimit="10" cx="33.833" cy="88.967" r="1.774"/>
			</g>
			<g>
				<path fill="none" stroke="#5E6B7B" stroke-width="2" stroke-miterlimit="10" d="M45.713,68.061l12.079,14.395
					c0,0,0.489,4.65-6.119,6.119"/>
				<circle fill="none" stroke="#5E6B7B" stroke-miterlimit="10" cx="50.542" cy="88.967" r="1.774"/>
			</g>
			
				<rect x="38.447" y="66.754" fill="none" stroke="#5E6B7B" stroke-width="2" stroke-miterlimit="10" width="7.194" height="3.475"/>
		</g>
	</g>
	<line fill="none" stroke="#5E6B7B" stroke-width="2" stroke-miterlimit="10" x1="72.796" y1="46.679" x2="72.796" y2="95"/>
	<line fill="none" stroke="#5E6B7B" stroke-width="2" stroke-miterlimit="10" x1="47.968" y1="46.679" x2="47.968" y2="61.814"/>
	<rect x="79.266" y="74.741" fill="none" stroke="#5E6B7B" stroke-width="2" stroke-miterlimit="10" width="6.887" height="7.032"/>
</g>
</svg>
