<?xml version="1.0" encoding="utf-8"?>
<!-- Generator: Adobe Illustrator 16.0.0, SVG Export Plug-In . SVG Version: 6.00 Build 0)  -->
<!DOCTYPE svg PUBLIC "-//W3C//DTD SVG 1.1//EN" "http://www.w3.org/Graphics/SVG/1.1/DTD/svg11.dtd">
<svg version="1.1" id="Layer_1" xmlns="http://www.w3.org/2000/svg" xmlns:xlink="http://www.w3.org/1999/xlink" x="0px" y="0px"
	 width="120px" height="95px" viewBox="0 0 120 95" enable-background="new 0 0 120 95" xml:space="preserve">
<g>
	<path fill="#5E6B7B" d="M46.181,19.991c0,0-12.691,22.895-6.968,24.886s12.194,0.249,12.194,0.249l7.964-33.845
		C59.371,11.281,47.674,17.503,46.181,19.991z"/>
	<path fill="#5E6B7B" d="M74.563,19.991c0,0,12.691,22.895,6.968,24.886s-12.194,0.249-12.194,0.249l-7.963-33.845
		C61.373,11.281,73.069,17.503,74.563,19.991z"/>
	
		<ellipse fill="#FFFFFF" stroke="#5E6B7B" stroke-width="2" stroke-miterlimit="10" cx="60.439" cy="28.168" rx="14.959" ry="18.124"/>
	<g>
		<path fill="none" stroke="#5E6B7B" stroke-width="2" stroke-miterlimit="10" d="M69.645,42.678c0,0,0,2.587,0,5.749
			s-2.143,10.885-4.762,17.161s-6.762,6.276-9.206,0c-2.444-6.276-4.444-13.999-4.444-17.161s0-5.749,0-5.749"/>
	</g>
	<g>
		<path fill="none" stroke="#5E6B7B" stroke-width="2" stroke-miterlimit="10" d="M50.512,46.709c0,0-4.621,2.16-10.268,4.801
			c-5.647,2.641-10.531,11.546-10.853,19.789L28.465,95"/>
	</g>
	<g>
		<path fill="none" stroke="#5E6B7B" stroke-width="2" stroke-miterlimit="10" d="M70.076,46.709c0,0,4.621,2.16,10.268,4.801
			c5.647,2.641,10.531,11.546,10.854,19.789L92.123,95"/>
	</g>
	<path fill="#5E6B7B" d="M75.196,25.322c-1.13-8.654-7.297-15.278-14.757-15.278c-8.262,0-14.959,8.114-14.959,18.124
		c0,0.567,0.028,1.127,0.07,1.681c0.214,0.378,0.338,0.597,0.338,0.597s5.072-1.248,7.569-13.343
		C62.287,25.381,70.496,25.951,75.196,25.322z"/>
	<g>
		<path fill="#FFFFFF" d="M71.818,18.406c-7.305-3.161-15.591-3.161-22.895,0c-1.536-3.55-3.072-7.1-4.608-10.649
			c10.245-4.433,21.867-4.433,32.112,0C74.891,11.307,73.354,14.856,71.818,18.406z"/>
		<path fill="none" stroke="#5E6B7B" stroke-width="2" stroke-miterlimit="10" d="M71.818,18.406
			c-7.305-3.161-15.591-3.161-22.895,0c-1.536-3.55-3.072-7.1-4.608-10.649c10.245-4.433,21.867-4.433,32.112,0
			C74.891,11.307,73.354,14.856,71.818,18.406z"/>
	</g>
	<g>
		<rect x="57.766" y="9.671" fill="#5E6B7B" width="5.449" height="1.986"/>
		<rect x="59.497" y="7.939" fill="#5E6B7B" width="1.986" height="5.449"/>
	</g>
	<g>
		<rect x="69.893" y="70.49" fill="#5E6B7B" width="11.58" height="4.221"/>
		<rect x="73.572" y="66.811" fill="#5E6B7B" width="4.221" height="11.58"/>
	</g>
</g>
</svg>
