<?xml version="1.0" encoding="utf-8"?>
<!-- Generator: Adobe Illustrator 16.0.0, SVG Export Plug-In . SVG Version: 6.00 Build 0)  -->
<!DOCTYPE svg PUBLIC "-//W3C//DTD SVG 1.1//EN" "http://www.w3.org/Graphics/SVG/1.1/DTD/svg11.dtd">
<svg version="1.1" xmlns="http://www.w3.org/2000/svg" xmlns:xlink="http://www.w3.org/1999/xlink" x="0px" y="0px" width="120px"
	 height="95px" viewBox="-235 0 120 95" enable-background="new -235 0 120 95" xml:space="preserve">
<g id="Layer_2">
	<polygon fill="#5E6B7B" points="-160.722,95 -222.879,95 -220.896,68.31 -214.257,58.938 -202.354,53.7 -180.103,54.121 
		-169.518,58.811 -163.323,66.781 -161.436,76.239 	"/>
</g>
<g id="Layer_1">
	<g>
		<g>
			<path fill="#FFFFFF" stroke="#5E6B7B" stroke-width="2" stroke-miterlimit="10" d="M-181.588,45.639c0,0,0,2.39,0,5.311
				s-2.349,9.82-5.22,10.386c-1.325,0.263-3.006,0.403-4.696,0.423c-1.971,0.024-3.953-0.117-5.395-0.423
				c-2.679-0.565-4.871-7.465-4.871-10.386s0-5.311,0-5.311"/>
		</g>
		
			<ellipse fill="none" stroke="#5E6B7B" stroke-width="2" stroke-miterlimit="10" cx="-191.678" cy="38.604" rx="11.576" ry="14.346"/>
		<g>
			<path fill="none" stroke="#5E6B7B" stroke-width="2" stroke-miterlimit="10" d="M-201.743,53.405c0,0-4.468,1.823-9.931,4.052
				c-5.461,2.229-10.146,9.743-10.411,16.699L-222.879,95"/>
		</g>
		<g>
			<path fill="none" stroke="#5E6B7B" stroke-width="2" stroke-miterlimit="10" d="M-181.858,53.405c0,0,4.468,1.823,9.93,4.052
				c5.462,2.229,10.147,9.743,10.413,16.699L-160.722,95"/>
		</g>
		<path fill="#5E6B7B" d="M-181.466,31.853c-1.949-4.518-5.79-7.595-10.212-7.595c-4.368,0-8.169,3.001-10.14,7.429
			c0.522,3.143,3.62,5.559,7.374,5.559c2.863,0,7.443-1.249,8.695-3.308C-182.701,34.636-182.155,33.753-181.466,31.853z"/>
		<path fill="#5E6B7B" d="M-200.581,34.432l-2.673,4.172c0,0-0.086-6.746,1.702-7.477
			C-199.763,30.396-200.581,34.432-200.581,34.432z"/>
		<path fill="#5E6B7B" d="M-182.148,30.245c-1.788-0.731-0.97,3.305-0.97,3.305l2.672,4.172"/>
	</g>
	<path fill="none" stroke="#5E6B7B" stroke-width="2" stroke-miterlimit="10" d="M-151.472,5.355
		c-13.416,0-24.291,8.463-24.291,18.903c0,5.61,3.144,10.647,8.132,14.109l-3.66,6.209c0,0,7.767,1.062,11.526-2.547
		c2.588,0.731,5.38,1.131,8.292,1.131c13.415,0,24.291-8.463,24.291-18.903C-127.181,13.818-138.057,5.355-151.472,5.355z"/>
	<line fill="none" stroke="#FFFFFF" stroke-miterlimit="10" x1="-191.637" y1="75.074" x2="-191.637" y2="92.557"/>
	<line fill="none" stroke="#FFFFFF" stroke-miterlimit="10" x1="-197.9" y1="65.41" x2="-191.637" y2="75.074"/>
	<line fill="none" stroke="#FFFFFF" stroke-miterlimit="10" x1="-184.772" y1="65.014" x2="-191.637" y2="75.074"/>
	<path fill="#FFFFFF" stroke="#FFFFFF" stroke-miterlimit="10" d="M-202.938,53.109c0-0.88-1.053,15.2-1.053,15.2l3.511-4.104
		l2.855,1.727C-197.624,65.933-202.938,56.039-202.938,53.109z"/>
	<path fill="#FFFFFF" stroke="#FFFFFF" stroke-miterlimit="10" d="M-180.322,53.109c0-0.88,1.053,15.2,1.053,15.2l-3.511-4.104
		l-2.855,1.727C-185.636,65.933-180.322,56.039-180.322,53.109z"/>
	<path fill="none" stroke="#5E6B7B" stroke-width="2" stroke-miterlimit="10" d="M-200.394,52.949"/>
</g>
</svg>
