<?xml version="1.0" encoding="utf-8"?>
<!-- Generator: Adobe Illustrator 16.0.0, SVG Export Plug-In . SVG Version: 6.00 Build 0)  -->
<!DOCTYPE svg PUBLIC "-//W3C//DTD SVG 1.1//EN" "http://www.w3.org/Graphics/SVG/1.1/DTD/svg11.dtd">
<svg version="1.1" id="Layer_1" xmlns="http://www.w3.org/2000/svg" xmlns:xlink="http://www.w3.org/1999/xlink" x="0px" y="0px"
	 width="120px" height="95px" viewBox="0 0 120 95" enable-background="new 0 0 120 95" xml:space="preserve">
<g>
	<path fill="none" stroke="#5E6B7B" stroke-width="2" stroke-miterlimit="10" d="M72.076,45.709c0,0,5.295,2.16,11.768,4.801
		S95.869,62.056,96.183,70.3l0.94,24.7"/>
</g>
<polygon fill="#FFFFFF" stroke="#5E6B7B" stroke-width="2" stroke-miterlimit="10" points="59.376,90.274 67.168,90.274 
	78.822,48.34 72.265,46.238 "/>
<ellipse fill="none" stroke="#5E6B7B" stroke-width="2" stroke-miterlimit="10" cx="60.439" cy="28.168" rx="15.549" ry="17"/>
<g>
	<path fill="none" stroke="#5E6B7B" stroke-width="2" stroke-miterlimit="10" d="M72.396,38.678c0,0,0,2.587,0,5.749
		s-2.783,6.206-6.185,6.765c-3.402,0.559-8.783,0.559-11.958,0c-3.175-0.559-5.773-3.603-5.773-6.765s0-5.749,0-5.749"/>
</g>
<path fill="#FFFFFF" stroke="#5E6B7B" stroke-width="2" stroke-miterlimit="10" d="M24.117,91.771h45.074
	c0.549,0.121,1.117,0.189,1.702,0.189c4.309,0,7.802-3.445,7.802-7.696s-3.493-7.696-7.802-7.696c-0.585,0-1.153,0.068-1.702,0.189
	H24.577"/>
<path fill="none" stroke="#5E6B7B" stroke-width="2" stroke-miterlimit="10" d="M39.004,76.231V49.588
	c-0.732,0.299-1.487,0.606-2.26,0.922C30.272,53.15,24.72,62.056,24.406,70.3L23.99,81.208v2.089
	c-0.045,0.208-0.074,0.421-0.104,0.634l-0.062,1.606"/>
<line fill="none" stroke="#5E6B7B" stroke-width="2" stroke-miterlimit="10" x1="39.775" y1="76.754" x2="24.443" y2="76.754"/>
<path fill="none" stroke="#5E6B7B" stroke-width="2" stroke-miterlimit="10" d="M25.973,91.234"/>
<path fill="none" stroke="#5E6B7B" stroke-width="2" stroke-miterlimit="10" d="M39.309,75.04"/>
<path fill="none" stroke="#5E6B7B" stroke-width="2" stroke-miterlimit="10" d="M24.306,84.09"/>
<path fill="none" stroke="#5E6B7B" stroke-width="2" stroke-miterlimit="10" d="M38.833,75.517"/>
<line fill="none" stroke="#5E6B7B" stroke-width="2" stroke-miterlimit="10" x1="52.701" y1="76.998" x2="52.701" y2="91.616"/>
<path fill="none" stroke="#5E6B7B" stroke-width="2" stroke-miterlimit="10" d="M48.512,45.709c0,0-5.295,2.16-11.768,4.801
	C30.272,53.15,24.72,62.056,24.406,70.3L23.465,95"/>
<g>
	<line fill="none" stroke="#5E6B7B" stroke-miterlimit="10" x1="28.576" y1="77.711" x2="28.576" y2="91.237"/>
	<line fill="none" stroke="#5E6B7B" stroke-width="2" stroke-miterlimit="10" x1="24.293" y1="90.709" x2="68.133" y2="77.933"/>
	<line fill="none" stroke="#5E6B7B" stroke-miterlimit="10" x1="32.576" y1="77.711" x2="32.576" y2="91.237"/>
	<line fill="none" stroke="#5E6B7B" stroke-miterlimit="10" x1="36.576" y1="77.711" x2="36.576" y2="91.237"/>
	<line fill="none" stroke="#5E6B7B" stroke-miterlimit="10" x1="40.576" y1="77.711" x2="40.576" y2="91.237"/>
	<line fill="none" stroke="#5E6B7B" stroke-miterlimit="10" x1="44.576" y1="77.711" x2="44.576" y2="91.237"/>
	<line fill="none" stroke="#5E6B7B" stroke-miterlimit="10" x1="48.576" y1="77.711" x2="48.576" y2="91.237"/>
	<line fill="none" stroke="#5E6B7B" stroke-miterlimit="10" x1="52.576" y1="77.711" x2="52.576" y2="91.237"/>
	<line fill="none" stroke="#5E6B7B" stroke-miterlimit="10" x1="56.576" y1="77.711" x2="56.576" y2="91.237"/>
	<line fill="none" stroke="#5E6B7B" stroke-miterlimit="10" x1="60.576" y1="77.711" x2="60.576" y2="91.237"/>
	<line fill="none" stroke="#5E6B7B" stroke-miterlimit="10" x1="64.576" y1="77.711" x2="64.576" y2="91.237"/>
	<line fill="none" stroke="#5E6B7B" stroke-miterlimit="10" x1="68.576" y1="77.711" x2="68.576" y2="91.237"/>
</g>
<polygon fill="#FFFFFF" stroke="#5E6B7B" stroke-width="2" stroke-miterlimit="10" points="60.269,91.233 52.477,91.233 
	40.822,48.919 47.38,46.798 "/>
</svg>
